<svg xmlns="http://www.w3.org/2000/svg" xmlns:xlink="http://www.w3.org/1999/xlink" width="500" zoomAndPan="magnify" viewBox="0 0 375 374.999991" height="500" preserveAspectRatio="xMidYMid meet" version="1.2"><defs><filter x="0%" y="0%" width="100%" filterUnits="objectBoundingBox" id="c8095779f5" height="100%"><feColorMatrix values="0 0 0 0 1 0 0 0 0 1 0 0 0 0 1 0 0 0 1 0" type="matrix" in="SourceGraphic"/></filter><clipPath id="108cd1e655"><path d="M 0.503906 0.351562 L 304.496094 0.351562 L 304.496094 304.339844 L 0.503906 304.339844 Z M 0.503906 0.351562 "/></clipPath><clipPath id="098232def5"><path d="M 152.5 0.351562 C 68.554688 0.351562 0.503906 68.402344 0.503906 152.347656 C 0.503906 236.289062 68.554688 304.339844 152.5 304.339844 C 236.445312 304.339844 304.496094 236.289062 304.496094 152.347656 C 304.496094 68.402344 236.445312 0.351562 152.5 0.351562 Z M 152.5 0.351562 "/></clipPath><clipPath id="98f729c374"><rect x="0" width="305" y="0" height="305"/></clipPath><clipPath id="c32012cc42"><path d="M 130 18.660156 L 223 18.660156 L 223 184 L 130 184 Z M 130 18.660156 "/></clipPath><clipPath id="e5a6e31d8b"><path d="M 87 137 L 292.8125 137 L 292.8125 293 L 87 293 Z M 87 137 "/></clipPath></defs><g id="cc597464e5"><g mask="url(#f8f7348b52)" transform="matrix(1,0,0,1,35,52)"><g clip-path="url(#98f729c374)"><g clip-rule="nonzero" clip-path="url(#108cd1e655)"><g clip-rule="nonzero" clip-path="url(#098232def5)"><path style=" stroke:none;fill-rule:nonzero;fill:#d9d9d9;fill-opacity:1;" d="M 0.503906 0.351562 L 304.496094 0.351562 L 304.496094 304.339844 L 0.503906 304.339844 Z M 0.503906 0.351562 "/></g></g></g><mask id="f8f7348b52"><g filter="url(#c8095779f5)"><rect x="0" width="375" y="0" height="374.999991" style="fill:#000000;fill-opacity:0.5;stroke:none;"/></g></mask></g><g clip-rule="nonzero" clip-path="url(#c32012cc42)"><path style=" stroke:none;fill-rule:nonzero;fill:#9d5623;fill-opacity:1;" d="M 173.679688 18.660156 C 176.828125 20.339844 179.789062 22.636719 182.535156 24.902344 C 188.207031 29.574219 193.65625 34.796875 197.277344 41.296875 C 199.070312 44.507812 200.609375 47.941406 201.265625 51.59375 C 203.679688 64.589844 194.972656 75.542969 185.828125 83.652344 C 178.914062 89.785156 171.304688 94.933594 164.71875 101.46875 C 157.765625 108.371094 151.949219 116.621094 149.242188 126.113281 C 145.472656 139.148438 147.15625 152.988281 153.742188 164.78125 C 156.886719 170.402344 160.914062 175.660156 165.558594 180.117188 C 166.070312 180.589844 166.914062 181.648438 167.535156 181.832031 C 164.828125 178.800781 162.046875 175.917969 159.996094 172.375 C 154.984375 163.757812 152.316406 154.011719 152.386719 144.003906 C 152.425781 138.929688 153.230469 134.328125 154.800781 129.472656 C 161.203125 109.574219 179.828125 99.644531 193.695312 85.585938 C 199.21875 80 204.011719 73.5 206.058594 65.796875 C 208 58.53125 207.15625 50.167969 204.011719 43.378906 C 202.65625 40.421875 200.9375 37.828125 199.292969 35.015625 L 203.460938 39.46875 C 206.9375 43.414062 210.265625 47.355469 213.011719 51.847656 C 218.863281 61.523438 222.339844 72.113281 222.304688 83.46875 C 222.304688 89.675781 220.949219 95.515625 218.609375 101.214844 C 214.582031 110.960938 207.265625 118.957031 199.144531 125.53125 L 188.460938 133.5625 C 178.511719 140.644531 167.972656 148.203125 164.9375 160.765625 C 163.035156 168.652344 165.230469 176.792969 169.363281 183.585938 C 168.558594 183.4375 167.316406 182.34375 166.621094 181.832031 C 162.960938 179.09375 159.523438 176.210938 156.230469 173.070312 C 149.351562 166.535156 143.972656 158.9375 139.472656 150.613281 C 134.570312 141.632812 130.730469 131.957031 130.507812 121.625 C 130.144531 106.289062 136.472656 92.816406 147.230469 82.042969 C 151.4375 77.84375 156.15625 74.265625 161.132812 70.980469 C 167.460938 66.820312 174.523438 63.421875 179.789062 57.871094 C 183.59375 53.894531 186.375 48.234375 186.191406 42.648438 C 186.011719 33.261719 180.375 24.867188 173.679688 18.660156 Z M 173.679688 18.660156 "/></g><g clip-rule="nonzero" clip-path="url(#e5a6e31d8b)"><path style=" stroke:none;fill-rule:nonzero;fill:#602b0f;fill-opacity:1;" d="M 194.386719 137.6875 C 196 137.6875 197.71875 137.980469 199.292969 138.199219 C 207.632812 139.1875 216.085938 141.15625 223.949219 144.113281 C 236.753906 148.933594 249.78125 157.039062 255.632812 169.894531 C 258.269531 169.894531 260.71875 169.636719 263.390625 169.929688 C 271.695312 170.84375 280.402344 175.1875 285.632812 181.722656 C 290.792969 188.148438 292.804688 196.253906 291.855469 204.398438 C 289.839844 221.484375 276.121094 235.578125 261.15625 242.917969 L 256.183594 245.109375 L 251.792969 246.714844 C 251.5 246.824219 250.65625 247.007812 250.4375 247.191406 C 249.925781 247.628906 249.304688 249.125 248.9375 249.746094 L 244.988281 255.804688 C 240.011719 262.78125 234.265625 269.097656 227.5 274.429688 C 214.730469 284.46875 199.875 290.457031 183.707031 292.320312 C 177.742188 293.011719 171.632812 293.160156 165.707031 292.429688 C 142.4375 289.652344 120.960938 278.117188 106.472656 259.640625 C 92.203125 241.492188 85.070312 217.433594 87.8125 194.464844 C 90.15625 201.257812 93.117188 207.5 96.886719 213.597656 C 106.253906 228.824219 121.363281 241.859375 139.035156 246.058594 C 164.460938 252.082031 186.15625 239.777344 204.449219 223.347656 C 214.914062 213.925781 224.277344 203.703125 236.460938 196.292969 C 236.792969 196.109375 237.304688 195.671875 237.667969 195.742188 C 235.839844 196.984375 234.121094 198.445312 232.4375 199.871094 C 223.21875 207.609375 216.15625 217.175781 208.765625 226.597656 C 197.644531 240.726562 184 254.382812 166.984375 261.210938 C 153.230469 266.722656 136.949219 267.929688 123.117188 262.050781 C 123.632812 262.707031 124.800781 263.21875 125.496094 263.65625 C 131.535156 267.382812 138.007812 269.9375 144.851562 271.800781 C 157.800781 274.828125 170.972656 274.71875 183.742188 270.703125 C 195.851562 266.90625 206.570312 259.3125 214.804688 249.707031 C 220.511719 243.027344 225.121094 235.578125 229.183594 227.839844 C 234.667969 217.394531 239.460938 206.878906 247.074219 197.714844 C 250.328125 193.84375 253.988281 190.085938 258.449219 187.601562 C 261.597656 198.226562 261.523438 210.386719 259.695312 221.230469 C 259.144531 224.441406 258.304688 227.582031 257.535156 230.757812 C 265.804688 226.742188 273.488281 219.804688 277.476562 211.480469 C 280 206.257812 280.914062 199.871094 278.902344 194.355469 C 277.21875 189.71875 273.449219 185.738281 268.949219 183.695312 C 263.71875 181.285156 258.414062 181.503906 252.816406 182.34375 C 247.765625 183.109375 242.828125 184.644531 238.070312 186.507812 C 233.535156 188.296875 229.183594 190.265625 224.972656 192.714844 C 209.023438 201.988281 195.265625 215.058594 177.777344 221.59375 C 174.082031 222.980469 170.351562 224.222656 166.511719 225.0625 C 153.886719 227.726562 141.15625 226.488281 129.410156 221.082031 C 118.179688 215.933594 108.960938 207.316406 102.15625 197.132812 C 99.484375 193.152344 97.070312 188.734375 95.421875 184.242188 C 93.375 178.691406 90.558594 171.207031 93.265625 165.476562 C 96.082031 159.523438 101.972656 155.359375 107.535156 152.148438 C 114.449219 148.167969 121.765625 145.210938 129.265625 142.582031 C 130.070312 145.757812 131.753906 149.261719 133.363281 152.109375 C 130.398438 153.242188 127.472656 154.375 124.507812 155.507812 C 120.191406 157.148438 115.875 158.609375 111.886719 161.058594 C 108.300781 163.285156 102.410156 166.824219 102.851562 171.753906 C 103.035156 173.726562 104.351562 175.40625 105.886719 176.648438 C 111.484375 181.136719 118.546875 183.695312 125.351562 185.738281 C 136.875 189.207031 148.914062 190.886719 160.914062 191.617188 C 178.65625 192.714844 196.765625 191.835938 214.109375 187.746094 C 220.765625 186.175781 227.683594 184.167969 233.753906 180.917969 C 235.949219 179.75 238.183594 178.582031 240.15625 177.085938 C 241.914062 175.734375 244.476562 173.398438 244.292969 170.988281 C 244.183594 169.492188 242.9375 168.285156 241.988281 167.226562 C 240.890625 166.023438 239.683594 164.925781 238.402344 163.941406 C 235.878906 161.96875 233.097656 160.398438 230.28125 158.902344 C 217.585938 152.148438 203.277344 149.007812 188.972656 147.949219 L 180.742188 147.65625 Z M 194.386719 137.6875 "/></g></g></svg>