<svg xmlns="http://www.w3.org/2000/svg" xmlns:xlink="http://www.w3.org/1999/xlink" width="500" zoomAndPan="magnify" viewBox="0 0 375 374.999991" height="500" preserveAspectRatio="xMidYMid meet" version="1.2"><defs><filter x="0%" y="0%" width="100%" filterUnits="objectBoundingBox" id="e741eb8607" height="100%"><feColorMatrix values="0 0 0 0 1 0 0 0 0 1 0 0 0 0 1 0 0 0 1 0" type="matrix" in="SourceGraphic"/></filter><clipPath id="a40972b77f"><path d="M 0.960938 0.0195312 L 98.757812 0.0195312 L 98.757812 97.820312 L 0.960938 97.820312 Z M 0.960938 0.0195312 "/></clipPath><clipPath id="41cecd68b0"><path d="M 49.859375 0.0195312 C 22.851562 0.0195312 0.960938 21.914062 0.960938 48.921875 C 0.960938 75.925781 22.851562 97.820312 49.859375 97.820312 C 76.867188 97.820312 98.757812 75.925781 98.757812 48.921875 C 98.757812 21.914062 76.867188 0.0195312 49.859375 0.0195312 Z M 49.859375 0.0195312 "/></clipPath><clipPath id="83f11e59e5"><rect x="0" width="99" y="0" height="98"/></clipPath><clipPath id="3fcbceca6e"><path d="M 161 133.179688 L 191 133.179688 L 191 187 L 161 187 Z M 161 133.179688 "/></clipPath><clipPath id="8ef9ffc8ac"><path d="M 147 171 L 213.652344 171 L 213.652344 221.679688 L 147 221.679688 Z M 147 171 "/></clipPath></defs><g id="3592ca26ac"><g mask="url(#9070f59a00)" transform="matrix(1,0,0,1,130,144)"><g clip-path="url(#83f11e59e5)"><g clip-rule="nonzero" clip-path="url(#a40972b77f)"><g clip-rule="nonzero" clip-path="url(#41cecd68b0)"><path style=" stroke:none;fill-rule:nonzero;fill:#d9d9d9;fill-opacity:1;" d="M 0.960938 0.0195312 L 98.757812 0.0195312 L 98.757812 97.820312 L 0.960938 97.820312 Z M 0.960938 0.0195312 "/></g></g></g><mask id="9070f59a00"><g filter="url(#e741eb8607)"><rect x="0" width="375" y="0" height="374.999991" style="fill:#000000;fill-opacity:0.5;stroke:none;"/></g></mask></g><g clip-rule="nonzero" clip-path="url(#3fcbceca6e)"><path style=" stroke:none;fill-rule:nonzero;fill:#9d5623;fill-opacity:1;" d="M 175.375 133.179688 C 176.386719 133.722656 177.339844 134.464844 178.222656 135.191406 C 180.042969 136.699219 181.792969 138.382812 182.957031 140.480469 C 183.535156 141.515625 184.027344 142.621094 184.238281 143.796875 C 185.015625 147.988281 182.21875 151.519531 179.277344 154.132812 C 177.058594 156.113281 174.613281 157.769531 172.496094 159.878906 C 170.261719 162.101562 168.394531 164.761719 167.523438 167.824219 C 166.3125 172.027344 166.855469 176.488281 168.96875 180.289062 C 169.980469 182.101562 171.273438 183.796875 172.765625 185.234375 C 172.929688 185.386719 173.203125 185.730469 173.402344 185.789062 C 172.53125 184.8125 171.636719 183.882812 170.980469 182.738281 C 169.371094 179.960938 168.511719 176.816406 168.535156 173.59375 C 168.546875 171.957031 168.804688 170.472656 169.3125 168.90625 C 171.367188 162.492188 177.351562 159.289062 181.804688 154.757812 C 183.582031 152.957031 185.121094 150.859375 185.777344 148.378906 C 186.402344 146.035156 186.132812 143.339844 185.121094 141.148438 C 184.6875 140.195312 184.132812 139.359375 183.605469 138.453125 L 184.945312 139.890625 C 186.0625 141.160156 187.128906 142.433594 188.011719 143.878906 C 189.894531 147 191.011719 150.414062 190.996094 154.074219 C 190.996094 156.074219 190.5625 157.960938 189.8125 159.796875 C 188.519531 162.9375 186.167969 165.515625 183.558594 167.636719 L 180.125 170.226562 C 176.925781 172.507812 173.542969 174.945312 172.566406 178.996094 C 171.957031 181.539062 172.660156 184.164062 173.988281 186.351562 C 173.730469 186.304688 173.332031 185.953125 173.109375 185.789062 C 171.933594 184.90625 170.828125 183.976562 169.769531 182.960938 C 167.558594 180.855469 165.832031 178.40625 164.386719 175.722656 C 162.808594 172.828125 161.574219 169.707031 161.503906 166.375 C 161.386719 161.433594 163.421875 157.089844 166.878906 153.617188 C 168.230469 152.261719 169.746094 151.109375 171.34375 150.050781 C 173.378906 148.707031 175.644531 147.613281 177.339844 145.824219 C 178.5625 144.539062 179.453125 142.714844 179.394531 140.914062 C 179.335938 137.890625 177.527344 135.179688 175.375 133.179688 Z M 175.375 133.179688 "/></g><g clip-rule="nonzero" clip-path="url(#8ef9ffc8ac)"><path style=" stroke:none;fill-rule:nonzero;fill:#602b0f;fill-opacity:1;" d="M 182.027344 171.554688 C 182.546875 171.554688 183.097656 171.648438 183.605469 171.722656 C 186.285156 172.039062 189 172.675781 191.527344 173.628906 C 195.640625 175.179688 199.824219 177.796875 201.707031 181.9375 C 202.554688 181.9375 203.339844 181.855469 204.199219 181.949219 C 206.867188 182.246094 209.664062 183.644531 211.34375 185.753906 C 213.003906 187.824219 213.648438 190.4375 213.34375 193.0625 C 212.695312 198.570312 208.289062 203.117188 203.480469 205.480469 L 201.882812 206.1875 L 200.472656 206.707031 C 200.378906 206.742188 200.109375 206.800781 200.039062 206.859375 C 199.871094 207 199.671875 207.484375 199.554688 207.683594 L 198.285156 209.636719 C 196.6875 211.886719 194.84375 213.921875 192.667969 215.640625 C 188.566406 218.878906 183.792969 220.808594 178.597656 221.410156 C 176.679688 221.632812 174.71875 221.679688 172.8125 221.445312 C 165.335938 220.550781 158.4375 216.828125 153.78125 210.875 C 149.199219 205.023438 146.90625 197.265625 147.789062 189.859375 C 148.539062 192.050781 149.492188 194.0625 150.703125 196.03125 C 153.710938 200.9375 158.566406 205.140625 164.246094 206.496094 C 172.414062 208.4375 179.382812 204.46875 185.261719 199.171875 C 188.625 196.136719 191.632812 192.839844 195.546875 190.449219 C 195.652344 190.390625 195.816406 190.25 195.933594 190.273438 C 195.347656 190.671875 194.792969 191.144531 194.253906 191.601562 C 191.292969 194.097656 189.023438 197.183594 186.648438 200.21875 C 183.074219 204.777344 178.691406 209.179688 173.226562 211.378906 C 168.804688 213.15625 163.574219 213.546875 159.132812 211.652344 C 159.296875 211.863281 159.671875 212.027344 159.894531 212.167969 C 161.835938 213.371094 163.914062 214.191406 166.113281 214.792969 C 170.273438 215.769531 174.507812 215.734375 178.609375 214.441406 C 182.5 213.214844 185.945312 210.769531 188.589844 207.671875 C 190.421875 205.515625 191.902344 203.117188 193.207031 200.621094 C 194.972656 197.253906 196.511719 193.863281 198.957031 190.910156 C 200.003906 189.660156 201.175781 188.449219 202.613281 187.648438 C 203.621094 191.074219 203.597656 194.992188 203.011719 198.488281 C 202.835938 199.527344 202.566406 200.539062 202.316406 201.5625 C 204.972656 200.265625 207.441406 198.03125 208.722656 195.347656 C 209.535156 193.664062 209.828125 191.601562 209.183594 189.824219 C 208.640625 188.332031 207.429688 187.046875 205.984375 186.386719 C 204.304688 185.613281 202.601562 185.683594 200.800781 185.953125 C 199.179688 186.199219 197.59375 186.695312 196.0625 187.292969 C 194.605469 187.871094 193.207031 188.507812 191.855469 189.296875 C 186.730469 192.285156 182.3125 196.5 176.691406 198.605469 C 175.503906 199.054688 174.304688 199.453125 173.070312 199.726562 C 169.015625 200.585938 164.925781 200.183594 161.152344 198.441406 C 157.542969 196.78125 154.582031 194.003906 152.394531 190.71875 C 151.539062 189.4375 150.761719 188.011719 150.234375 186.566406 C 149.574219 184.777344 148.667969 182.363281 149.539062 180.515625 C 150.445312 178.59375 152.335938 177.253906 154.125 176.21875 C 156.34375 174.933594 158.695312 173.980469 161.105469 173.132812 C 161.363281 174.15625 161.90625 175.289062 162.421875 176.207031 C 161.46875 176.570312 160.53125 176.9375 159.578125 177.300781 C 158.191406 177.832031 156.804688 178.300781 155.523438 179.089844 C 154.371094 179.808594 152.476562 180.949219 152.617188 182.539062 C 152.679688 183.175781 153.101562 183.714844 153.59375 184.117188 C 155.394531 185.5625 157.660156 186.386719 159.847656 187.046875 C 163.550781 188.164062 167.417969 188.707031 171.273438 188.941406 C 176.976562 189.296875 182.792969 189.011719 188.363281 187.695312 C 190.503906 187.1875 192.726562 186.542969 194.675781 185.492188 C 195.382812 185.117188 196.097656 184.742188 196.734375 184.257812 C 197.296875 183.820312 198.121094 183.070312 198.0625 182.292969 C 198.027344 181.808594 197.628906 181.421875 197.320312 181.078125 C 196.96875 180.691406 196.582031 180.335938 196.171875 180.019531 C 195.359375 179.382812 194.464844 178.878906 193.5625 178.394531 C 189.480469 176.21875 184.886719 175.207031 180.289062 174.863281 L 177.644531 174.769531 Z M 182.027344 171.554688 "/></g><g style="fill:#000000;fill-opacity:1;"><g transform="translate(22.920992, 217.294937)"><path style="stroke:none" d="M 57.375 -2.640625 C 57.675781 -1.835938 57.6875 -1.195312 57.40625 -0.71875 C 57.132812 -0.238281 56.671875 0 56.015625 0 L 43.6875 0 C 42.582031 0 41.835938 -0.210938 41.453125 -0.640625 C 41.078125 -1.066406 40.691406 -1.757812 40.296875 -2.71875 C 40.242188 -2.925781 40.085938 -3.394531 39.828125 -4.125 C 39.578125 -4.851562 39.253906 -5.820312 38.859375 -7.03125 L 22.53125 -7.03125 C 22.175781 -5.820312 21.867188 -4.851562 21.609375 -4.125 C 21.359375 -3.394531 21.1875 -2.925781 21.09375 -2.71875 C 20.738281 -1.757812 20.367188 -1.066406 19.984375 -0.640625 C 19.609375 -0.210938 18.84375 0 17.6875 0 L 5.4375 0 C 4.78125 0 4.300781 -0.238281 4 -0.71875 C 3.695312 -1.195312 3.722656 -1.835938 4.078125 -2.640625 C 4.179688 -2.898438 4.570312 -3.945312 5.25 -5.78125 C 5.9375 -7.625 6.796875 -9.957031 7.828125 -12.78125 C 8.859375 -15.601562 9.988281 -18.6875 11.21875 -22.03125 C 12.457031 -25.382812 13.691406 -28.722656 14.921875 -32.046875 C 16.160156 -35.378906 17.296875 -38.441406 18.328125 -41.234375 C 19.359375 -44.035156 20.203125 -46.316406 20.859375 -48.078125 C 21.515625 -49.835938 21.894531 -50.820312 22 -51.03125 C 22.25 -51.6875 22.535156 -52.164062 22.859375 -52.46875 C 23.191406 -52.769531 23.6875 -52.921875 24.34375 -52.921875 L 37.046875 -52.921875 C 37.742188 -52.921875 38.242188 -52.769531 38.546875 -52.46875 C 38.847656 -52.164062 39.148438 -51.6875 39.453125 -51.03125 C 39.554688 -50.820312 39.9375 -49.835938 40.59375 -48.078125 C 41.25 -46.316406 42.09375 -44.023438 43.125 -41.203125 C 44.15625 -38.378906 45.285156 -35.300781 46.515625 -31.96875 C 47.753906 -28.644531 48.988281 -25.304688 50.21875 -21.953125 C 51.457031 -18.609375 52.59375 -15.523438 53.625 -12.703125 C 54.664062 -9.878906 55.523438 -7.5625 56.203125 -5.75 C 56.878906 -3.9375 57.269531 -2.898438 57.375 -2.640625 Z M 26.6875 -20.03125 L 34.703125 -20.03125 C 34.046875 -22.09375 33.390625 -24.179688 32.734375 -26.296875 C 32.078125 -28.421875 31.394531 -30.515625 30.6875 -32.578125 C 30.03125 -30.515625 29.375 -28.421875 28.71875 -26.296875 C 28.070312 -24.179688 27.394531 -22.09375 26.6875 -20.03125 Z M 26.6875 -20.03125 "/></g></g><g style="fill:#000000;fill-opacity:1;"><g transform="translate(80.526324, 217.294937)"><path style="stroke:none" d="M 48.90625 -2.5 C 49.257812 -1.894531 49.347656 -1.328125 49.171875 -0.796875 C 48.992188 -0.265625 48.453125 0 47.546875 0 L 34.171875 0 C 33.515625 0 32.929688 -0.195312 32.421875 -0.59375 C 31.921875 -1 31.546875 -1.429688 31.296875 -1.890625 C 31.191406 -2.085938 30.722656 -2.929688 29.890625 -4.421875 C 29.066406 -5.910156 28.070312 -7.722656 26.90625 -9.859375 C 25.75 -12.003906 24.59375 -14.109375 23.4375 -16.171875 L 19.359375 -16.171875 L 19.359375 -1.890625 C 19.359375 -1.390625 19.179688 -0.945312 18.828125 -0.5625 C 18.472656 -0.1875 18.019531 0 17.46875 0 L 5.671875 0 C 5.160156 0 4.71875 -0.1875 4.34375 -0.5625 C 3.96875 -0.945312 3.78125 -1.390625 3.78125 -1.890625 L 3.78125 -51.03125 C 3.78125 -51.582031 3.96875 -52.035156 4.34375 -52.390625 C 4.71875 -52.742188 5.160156 -52.921875 5.671875 -52.921875 L 26.984375 -52.921875 C 33.128906 -52.921875 37.941406 -51.242188 41.421875 -47.890625 C 44.898438 -44.535156 46.640625 -40.035156 46.640625 -34.390625 C 46.640625 -31.117188 46.007812 -28.171875 44.75 -25.546875 C 43.488281 -22.929688 41.597656 -20.84375 39.078125 -19.28125 C 39.984375 -17.769531 40.96875 -16.09375 42.03125 -14.25 C 43.09375 -12.40625 44.125 -10.625 45.125 -8.90625 C 46.132812 -7.195312 46.976562 -5.765625 47.65625 -4.609375 C 48.34375 -3.453125 48.757812 -2.75 48.90625 -2.5 Z M 32.65625 -34.46875 C 32.65625 -35.226562 32.441406 -36.070312 32.015625 -37 C 31.585938 -37.9375 30.929688 -38.726562 30.046875 -39.375 C 29.160156 -40.03125 27.988281 -40.359375 26.53125 -40.359375 L 19.359375 -40.359375 L 19.359375 -28.71875 L 26.6875 -28.71875 C 28.039062 -28.71875 29.160156 -29.03125 30.046875 -29.65625 C 30.929688 -30.289062 31.585938 -31.0625 32.015625 -31.96875 C 32.441406 -32.882812 32.65625 -33.71875 32.65625 -34.46875 Z M 32.65625 -34.46875 "/></g></g><g style="fill:#000000;fill-opacity:1;"><g transform="translate(228.54771, 217.294937)"><path style="stroke:none" d="M 61.234375 -52.921875 C 61.734375 -52.921875 62.171875 -52.726562 62.546875 -52.34375 C 62.929688 -51.96875 63.125 -51.53125 63.125 -51.03125 L 63.125 -1.890625 C 63.125 -1.390625 62.929688 -0.945312 62.546875 -0.5625 C 62.171875 -0.1875 61.734375 0 61.234375 0 L 49.359375 0 C 48.859375 0 48.414062 -0.1875 48.03125 -0.5625 C 47.65625 -0.945312 47.46875 -1.390625 47.46875 -1.890625 L 47.46875 -25.25 C 47.46875 -25.25 47.21875 -24.882812 46.71875 -24.15625 C 46.21875 -23.425781 45.578125 -22.492188 44.796875 -21.359375 C 44.015625 -20.222656 43.207031 -19.050781 42.375 -17.84375 C 41.539062 -16.632812 40.796875 -15.550781 40.140625 -14.59375 C 39.484375 -13.632812 39.03125 -12.976562 38.78125 -12.625 C 38.070312 -11.519531 37.488281 -10.914062 37.03125 -10.8125 C 36.582031 -10.707031 36.207031 -10.65625 35.90625 -10.65625 L 31 -10.65625 C 30.695312 -10.65625 30.316406 -10.707031 29.859375 -10.8125 C 29.398438 -10.914062 28.820312 -11.519531 28.125 -12.625 C 27.875 -12.976562 27.40625 -13.632812 26.71875 -14.59375 C 26.039062 -15.550781 25.285156 -16.632812 24.453125 -17.84375 C 23.617188 -19.050781 22.8125 -20.222656 22.03125 -21.359375 C 21.25 -22.492188 20.609375 -23.425781 20.109375 -24.15625 C 19.609375 -24.882812 19.359375 -25.25 19.359375 -25.25 L 19.359375 -1.890625 C 19.359375 -1.390625 19.179688 -0.945312 18.828125 -0.5625 C 18.472656 -0.1875 18.019531 0 17.46875 0 L 5.671875 0 C 5.160156 0 4.71875 -0.1875 4.34375 -0.5625 C 3.96875 -0.945312 3.78125 -1.390625 3.78125 -1.890625 L 3.78125 -51.03125 C 3.78125 -51.53125 3.96875 -51.96875 4.34375 -52.34375 C 4.71875 -52.726562 5.160156 -52.921875 5.671875 -52.921875 L 14.59375 -52.921875 C 15.25 -52.921875 15.765625 -52.789062 16.140625 -52.53125 C 16.515625 -52.28125 16.929688 -51.878906 17.390625 -51.328125 C 17.535156 -51.128906 18.023438 -50.460938 18.859375 -49.328125 C 19.691406 -48.191406 20.710938 -46.789062 21.921875 -45.125 C 23.128906 -43.46875 24.390625 -41.71875 25.703125 -39.875 C 27.015625 -38.03125 28.257812 -36.300781 29.4375 -34.6875 C 30.625 -33.082031 31.582031 -31.773438 32.3125 -30.765625 C 33.039062 -29.753906 33.40625 -29.25 33.40625 -29.25 C 33.40625 -29.25 33.769531 -29.753906 34.5 -30.765625 C 35.238281 -31.773438 36.195312 -33.082031 37.375 -34.6875 C 38.5625 -36.300781 39.820312 -38.03125 41.15625 -39.875 C 42.488281 -41.71875 43.757812 -43.46875 44.96875 -45.125 C 46.1875 -46.789062 47.207031 -48.191406 48.03125 -49.328125 C 48.863281 -50.460938 49.359375 -51.128906 49.515625 -51.328125 C 49.960938 -51.878906 50.375 -52.28125 50.75 -52.53125 C 51.132812 -52.789062 51.65625 -52.921875 52.3125 -52.921875 Z M 61.234375 -52.921875 "/></g></g><g style="fill:#000000;fill-opacity:1;"><g transform="translate(291.671679, 217.294937)"><path style="stroke:none" d="M 57.375 -2.640625 C 57.675781 -1.835938 57.6875 -1.195312 57.40625 -0.71875 C 57.132812 -0.238281 56.671875 0 56.015625 0 L 43.6875 0 C 42.582031 0 41.835938 -0.210938 41.453125 -0.640625 C 41.078125 -1.066406 40.691406 -1.757812 40.296875 -2.71875 C 40.242188 -2.925781 40.085938 -3.394531 39.828125 -4.125 C 39.578125 -4.851562 39.253906 -5.820312 38.859375 -7.03125 L 22.53125 -7.03125 C 22.175781 -5.820312 21.867188 -4.851562 21.609375 -4.125 C 21.359375 -3.394531 21.1875 -2.925781 21.09375 -2.71875 C 20.738281 -1.757812 20.367188 -1.066406 19.984375 -0.640625 C 19.609375 -0.210938 18.84375 0 17.6875 0 L 5.4375 0 C 4.78125 0 4.300781 -0.238281 4 -0.71875 C 3.695312 -1.195312 3.722656 -1.835938 4.078125 -2.640625 C 4.179688 -2.898438 4.570312 -3.945312 5.25 -5.78125 C 5.9375 -7.625 6.796875 -9.957031 7.828125 -12.78125 C 8.859375 -15.601562 9.988281 -18.6875 11.21875 -22.03125 C 12.457031 -25.382812 13.691406 -28.722656 14.921875 -32.046875 C 16.160156 -35.378906 17.296875 -38.441406 18.328125 -41.234375 C 19.359375 -44.035156 20.203125 -46.316406 20.859375 -48.078125 C 21.515625 -49.835938 21.894531 -50.820312 22 -51.03125 C 22.25 -51.6875 22.535156 -52.164062 22.859375 -52.46875 C 23.191406 -52.769531 23.6875 -52.921875 24.34375 -52.921875 L 37.046875 -52.921875 C 37.742188 -52.921875 38.242188 -52.769531 38.546875 -52.46875 C 38.847656 -52.164062 39.148438 -51.6875 39.453125 -51.03125 C 39.554688 -50.820312 39.9375 -49.835938 40.59375 -48.078125 C 41.25 -46.316406 42.09375 -44.023438 43.125 -41.203125 C 44.15625 -38.378906 45.285156 -35.300781 46.515625 -31.96875 C 47.753906 -28.644531 48.988281 -25.304688 50.21875 -21.953125 C 51.457031 -18.609375 52.59375 -15.523438 53.625 -12.703125 C 54.664062 -9.878906 55.523438 -7.5625 56.203125 -5.75 C 56.878906 -3.9375 57.269531 -2.898438 57.375 -2.640625 Z M 26.6875 -20.03125 L 34.703125 -20.03125 C 34.046875 -22.09375 33.390625 -24.179688 32.734375 -26.296875 C 32.078125 -28.421875 31.394531 -30.515625 30.6875 -32.578125 C 30.03125 -30.515625 29.375 -28.421875 28.71875 -26.296875 C 28.070312 -24.179688 27.394531 -22.09375 26.6875 -20.03125 Z M 26.6875 -20.03125 "/></g></g></g></svg>